# xmcd
#
# Track frame offsets:
#	150
#	14954
#	29749
#	45479
#	59707
#	75728
#	89899
#	105067
#	120627
#	136663
#	155137
#	172285
#	186976
#	198071
#	211788
#	225278
#	237118
#	251608
#	266073
#	280311
#	297972
#	312487
#	326782
#	341621
#
# Disc length: 4725 seconds
#
# Revision: 0
# Processed by: cddbd v1.4PL0 Copyright (c) Steve Scherf et al.
# Submitted via: EasyCDDAExtractor 4.6.0.1
#
DISCID=6b127318
DTITLE=banda el recodo - exitos
DYEAR=2001
DGENRE=
TTITLE0=intro
TTITLE1=y llegaste tu
TTITLE2=quisiera ser
TTITLE3=la chiquilla
TTITLE4=te equivocaste
TTITLE5=como pudiste
TTITLE6=pero no me quieres
TTITLE7=contigo por siempre
TTITLE8=vuelve amor
TTITLE9=tu no eres facir de quere
TTITLE10=la crazy loca
TTITLE11=cada vez te extraño mas
TTITLE12=te ofreco mi corazon
TTITLE13=no me dejes nunca
TTITLE14=no puedo vivir sin ti
TTITLE15=deja
TTITLE16=me haces falta tu
TTITLE17=yo se que te acordaras
TTITLE18=moviendo la cadera
TTITLE19=lo mejor de mi vida
TTITLE20=gracias por tu amor
TTITLE21=hola mi amor
TTITLE22=recordandote
TTITLE23=pena tras pena
EXTD=
EXTT0=
EXTT1=
EXTT2=
EXTT3=
EXTT4=
EXTT5=
EXTT6=
EXTT7=
EXTT8=
EXTT9=
EXTT10=
EXTT11=
EXTT12=
EXTT13=
EXTT14=
EXTT15=
EXTT16=
EXTT17=
EXTT18=
EXTT19=
EXTT20=
EXTT21=
EXTT22=
EXTT23=
PLAYORDER=
